<svg id="Group_8189" data-name="Group 8189" xmlns="http://www.w3.org/2000/svg" viewBox="-5322 -9657 160.972 23.808">
  <defs>
    <style>
      .cls-1 {
        fill: #1a68b3;
      }

      .cls-2 {
        fill: #f77a18;
      }
    </style>
  </defs>
  <g id="Group_3377" data-name="Group 3377" transform="translate(-5287.437 -9653.751)">
    <path id="Path_3570" data-name="Path 3570" class="cls-1" d="M83.439,15.361H81.8V12.884h1.723V9.4h3.068v3.442h2.858v2.477H86.591V20.4a2.264,2.264,0,0,0,2.479,2.393,3.972,3.972,0,0,0,.588-.042v2.729a4.912,4.912,0,0,1-.967.084c-1.765,0-5.253-.5-5.253-4.744Z" transform="translate(-81.8 -7.931)"/>
    <path id="Path_3571" data-name="Path 3571" class="cls-1" d="M110.18,21.9h.378v-.084c0-1.805-.714-2.477-2.311-2.477-.588,0-1.681.168-1.681.84v.672h-2.9V19.5c0-2.351,3.32-2.6,4.623-2.6,4.2,0,5.463,2.183,5.463,5.038v4.7a.507.507,0,0,0,.546.546h1.009V29.83h-2.816c-1.177,0-1.6-.63-1.6-1.385a3.065,3.065,0,0,1,.042-.546h-.126a4.119,4.119,0,0,1-3.824,2.225c-2.269,0-4.286-1.427-4.286-3.946C102.658,22.231,108.121,21.9,110.18,21.9Zm-2.437,5.751c1.681,0,2.858-1.763,2.858-3.316v-.294h-.546c-1.639,0-4.244.21-4.244,1.973A1.727,1.727,0,0,0,107.743,27.647Z" transform="translate(-93.917 -12.282)"/>
    <path id="Path_3572" data-name="Path 3572" class="cls-1" d="M134.555,9.09a.488.488,0,0,0-.546-.546H133V5.9h2.984c1.177,0,1.681.5,1.681,1.679V20.257a.507.507,0,0,0,.546.546h.967v2.645h-2.984c-1.177,0-1.681-.5-1.681-1.679V9.09Z" transform="translate(-111.484 -5.9)"/>
    <path id="Path_3573" data-name="Path 3573" class="cls-1" d="M155.83,16.9c3.614,0,5.589,2.645,5.589,6,0,.378-.084,1.175-.084,1.175h-8.7a3.647,3.647,0,0,0,3.782,3.4,5.709,5.709,0,0,0,3.53-1.427l1.3,2.183a7.731,7.731,0,0,1-5.085,1.889,6.441,6.441,0,0,1-6.766-6.591A6.254,6.254,0,0,1,155.83,16.9Zm2.353,5a2.461,2.461,0,0,0-2.4-2.561,3.072,3.072,0,0,0-3.11,2.561Z" transform="translate(-120.992 -12.282)"/>
    <path id="Path_3574" data-name="Path 3574" class="cls-1" d="M181.455,20.484a.488.488,0,0,0-.546-.546H179.9V17.252h2.9c1.135,0,1.639.5,1.639,1.427v.378a4.554,4.554,0,0,1-.042.546h.042a4.851,4.851,0,0,1,4.455-2.6c2.816,0,4.413,1.469,4.413,4.786V26.7a.507.507,0,0,0,.546.546h1.009v2.645h-2.984c-1.177,0-1.681-.5-1.681-1.679V22.415c0-1.553-.378-2.561-1.975-2.561a3.481,3.481,0,0,0-3.4,2.561,5.409,5.409,0,0,0-.252,1.679v5.793h-3.11v-9.4Z" transform="translate(-138.674 -12.34)"/>
    <path id="Path_3575" data-name="Path 3575" class="cls-1" d="M217.639,15.361H216V12.884h1.723V9.4h3.068v3.442h2.858v2.477h-2.858V20.4a2.264,2.264,0,0,0,2.479,2.393,3.972,3.972,0,0,0,.588-.042v2.729a4.912,4.912,0,0,1-.967.084c-1.765,0-5.253-.5-5.253-4.744Z" transform="translate(-159.604 -7.931)"/>
    <path id="Path_3576" data-name="Path 3576" class="cls-2" d="M245.234,16.9c1.639,0,4.581.672,4.581,2.855v1.469h-2.774v-.672c0-.672-1.051-1.008-1.807-1.008a3.7,3.7,0,0,0-3.74,3.946,3.72,3.72,0,0,0,3.95,3.862,5.728,5.728,0,0,0,3.74-1.721l1.3,2.183a7.27,7.27,0,0,1-5.337,2.267,6.489,6.489,0,0,1-6.85-6.591A6.56,6.56,0,0,1,245.234,16.9Z" transform="translate(-172.532 -12.282)"/>
    <path id="Path_3577" data-name="Path 3577" class="cls-2" d="M276.795,21.9h.378v-.084c0-1.805-.714-2.477-2.311-2.477-.588,0-1.681.168-1.681.84v.672h-2.9V19.5c0-2.351,3.32-2.6,4.623-2.6,4.2,0,5.463,2.183,5.463,5.038v4.7a.507.507,0,0,0,.546.546h1.009V29.83h-2.816c-1.177,0-1.6-.63-1.6-1.385a3.067,3.067,0,0,1,.042-.546h-.042a4.119,4.119,0,0,1-3.824,2.225c-2.269,0-4.286-1.427-4.286-3.946C269.315,22.231,274.736,21.9,276.795,21.9Zm-2.437,5.751c1.681,0,2.858-1.763,2.858-3.316v-.294h-.546c-1.639,0-4.244.21-4.244,1.973A1.727,1.727,0,0,0,274.358,27.647Z" transform="translate(-190.561 -12.282)"/>
    <path id="Path_3578" data-name="Path 3578" class="cls-2" d="M301.955,20.6a.488.488,0,0,0-.546-.546H300.4V17.368h2.858c1.135,0,1.681.462,1.681,1.553v.714a7.108,7.108,0,0,1-.042.8h.042a4.332,4.332,0,0,1,3.992-3.232,5.806,5.806,0,0,1,.588.042v3.107a6.805,6.805,0,0,0-.756-.042,3.555,3.555,0,0,0-3.446,2.645,7.881,7.881,0,0,0-.252,2.057v5h-3.11Z" transform="translate(-208.535 -12.456)"/>
    <path id="Path_3579" data-name="Path 3579" class="cls-2" d="M328.957,10.518c2.732,0,3.656,1.553,3.656,1.553h.042a6.788,6.788,0,0,1-.042-.756V9.09a.488.488,0,0,0-.546-.546h-1.009V5.9h2.984c1.177,0,1.681.5,1.681,1.679V20.257a.507.507,0,0,0,.546.546h.967v2.645h-2.9c-1.135,0-1.555-.546-1.555-1.3v-.462h0a4.37,4.37,0,0,1-3.95,2.057c-3.4,0-5.631-2.687-5.631-6.591C323.2,13.121,325.6,10.518,328.957,10.518Zm3.74,6.591c0-1.973-1.009-3.862-3.11-3.862-1.723,0-3.152,1.427-3.152,3.9,0,2.393,1.261,3.946,3.11,3.946C331.143,21.1,332.7,19.879,332.7,17.109Z" transform="translate(-221.754 -5.9)"/>
    <path id="Path_3580" data-name="Path 3580" class="cls-2" d="M360.029,25.8a5.632,5.632,0,0,0,3.782,1.847c.967,0,1.723-.378,1.723-1.217,0-1.763-6.64-1.763-6.64-5.835,0-2.519,2.269-3.694,4.917-3.694,1.723,0,4.413.588,4.413,2.6v1.3H365.45v-.63c0-.588-.883-.882-1.6-.882-1.135,0-1.891.378-1.891,1.133,0,1.973,6.724,1.6,6.724,5.793,0,2.393-2.1,3.862-4.833,3.862a6.974,6.974,0,0,1-5.253-2.267Z" transform="translate(-242.277 -12.282)"/>
  </g>
  <g id="Group_3378" data-name="Group 3378" transform="translate(-5322 -9657)">
    <path id="Path_3581" data-name="Path 3581" class="cls-1" d="M28.543,21.259a.826.826,0,0,1-.664-.29.975.975,0,0,1,0-1.368L37.5,9.821a2.034,2.034,0,0,0,.622-1.492,1.943,1.943,0,0,0-.622-1.45l-4.356-4.31A2.114,2.114,0,0,0,31.7,1.948a1.947,1.947,0,0,0-1.452.622L22.9,9.78a2.126,2.126,0,0,0,0,2.942l2.157,2.155a.968.968,0,0,1-1.369,1.368L21.532,14.09a4,4,0,0,1,0-5.677l7.3-7.252A3.953,3.953,0,0,1,31.654,0a4.123,4.123,0,0,1,2.862,1.16l4.314,4.31a4,4,0,0,1,0,5.677l-9.583,9.821A1.177,1.177,0,0,1,28.543,21.259Z" transform="translate(-11.908 0.021)"/>
    <path id="Path_3582" data-name="Path 3582" class="cls-2" d="M14.022,23.758a.972.972,0,0,1-.705-.29L1.162,11.16A4.041,4.041,0,0,1,0,8.3,4.114,4.114,0,0,1,1.162,5.441l4.356-4.31a4.009,4.009,0,0,1,5.683,0l1,.995a.968.968,0,1,1-1.369,1.368L9.79,2.5a2.055,2.055,0,0,0-2.945,0L2.572,6.85A2.109,2.109,0,0,0,1.95,8.3a1.943,1.943,0,0,0,.622,1.45L14.727,22.059a.975.975,0,0,1,0,1.368A.876.876,0,0,1,14.022,23.758Z" transform="translate(0 0.05)"/>
  </g>
</svg>
